# xmcd
# 
# Track frame offsets:
#     150
#     21554
#     42753
#     59775
#     75730
# 
# Disc length: 1193
# 
# Revision: 0
# Processed by: cddbd v1.5.2PL0 Copyright (c) Steve Scherf et al.
# Submitted via: fre:ac v1.1beta1pre4
# 
DISCID=4004a705
DTITLE=Emalee Hill - Sunday
DYEAR=0
DGENRE=Folk
TTITLE0=Sunday Morning
TTITLE1=Cool Kids
TTITLE2=Get It Back
TTITLE3=Blame It All On Mexico
TTITLE4=New York
EXTD=
EXTT0=
EXTT1=
EXTT2=
EXTT3=
EXTT4=
PLAYORDER=
